<svg width="20" height="20" viewBox="0 0 20 20" fill="none" xmlns="http://www.w3.org/2000/svg">
<path d="M8.46046 4.62958C8.50291 4.71597 8.53094 4.80849 8.54349 4.90359L8.77552 8.35353L8.8907 10.0875C8.89189 10.2659 8.91986 10.443 8.97373 10.6133C9.11283 10.9438 9.44747 11.1538 9.81155 11.1391L15.3593 10.7763C15.5995 10.7723 15.8315 10.8622 16.0042 11.026C16.1481 11.1626 16.241 11.3413 16.2703 11.5334L16.2801 11.6501C16.0506 14.8291 13.7158 17.4805 10.5435 18.165C7.37113 18.8494 4.11806 17.4036 2.55043 14.6124C2.09849 13.8015 1.81621 12.9102 1.72016 11.9908C1.68003 11.7186 1.66236 11.4437 1.66732 11.1688C1.66237 7.76059 4.0894 4.81411 7.48678 4.10378C7.89568 4.04012 8.29653 4.25658 8.46046 4.62958Z" fill="white"/>
<path opacity="0.4" d="M10.7247 1.66734C14.5246 1.76401 17.7182 4.49648 18.333 8.1769L18.3271 8.20405L18.3103 8.24355L18.3127 8.35196C18.304 8.49558 18.2485 8.63377 18.153 8.74539C18.0534 8.86167 17.9174 8.94085 17.7676 8.97158L17.6763 8.98411L11.2757 9.39883C11.0628 9.41983 10.8508 9.35118 10.6924 9.20995C10.5605 9.09227 10.4761 8.9334 10.4523 8.76222L10.0227 2.37088C10.0152 2.34926 10.0152 2.32584 10.0227 2.30422C10.0286 2.12805 10.1061 1.96152 10.238 1.84185C10.3699 1.72217 10.5452 1.65932 10.7247 1.66734Z" fill="white"/>
</svg>
