<svg width="22" height="22" viewBox="0 0 22 22" fill="none" xmlns="http://www.w3.org/2000/svg">
<path fill-rule="evenodd" clip-rule="evenodd" d="M9.68629 13.6966V19.3726V22H12.3137V19.3726V13.6966H9.68629ZM7.06515 19.3726H3.19315C3.04229 19.3726 2.89771 19.3097 2.79714 19.2091C2.69029 19.1023 2.62743 18.9577 2.62743 18.8069V8.448H0V18.8069C0 19.6869 0.358287 20.4851 0.936573 21.0634C1.51486 21.6417 2.31315 22 3.19315 22H7.06515V19.3726ZM19.3726 5.82057H22V3.19314C22 2.31314 21.6417 1.51486 21.0634 0.936569C20.4851 0.358283 19.6869 0 18.8069 0H3.19315C2.31315 0 1.51486 0.358283 0.936573 0.936569C0.358287 1.51486 0 2.31314 0 3.19314V5.82057H2.62743V3.19314C2.62743 3.04229 2.69029 2.89771 2.79714 2.79086C2.89771 2.69028 3.04229 2.62743 3.19315 2.62743H18.8069C18.964 2.62743 19.1023 2.69028 19.2091 2.79086C19.3097 2.89771 19.3726 3.04229 19.3726 3.19314V5.82057ZM22 11.0691V8.448H19.3726V11.0691V18.8069V21.9497C20.0263 21.8303 20.6109 21.516 21.0634 21.0634C21.6417 20.4851 22 19.6869 22 18.8069V11.0691ZM14.5326 19.3726V22H17.16V19.3726V11.0691H14.5326V19.3726Z" fill="#6B5AF7"/>
</svg>
