<svg width="20" height="20" viewBox="0 0 20 20" fill="none" xmlns="http://www.w3.org/2000/svg">
<path d="M16.9267 11.9257C15.6999 12.2667 14.4045 12.2756 13.173 11.9518C11.9415 11.6279 10.8181 10.9827 9.91768 10.0823C9.01727 9.18193 8.37214 8.05855 8.04825 6.82706C7.72436 5.59557 7.73333 4.30016 8.07425 3.07327L8.07445 3.07333C6.86435 3.40997 5.76357 4.0578 4.88178 4.95229C3.99999 5.84678 3.36796 6.95671 3.04865 8.1715C2.72935 9.38629 2.73392 10.6635 3.0619 11.876C3.38989 13.0885 4.02984 14.1939 4.91801 15.082C5.80618 15.9702 6.91156 16.6101 8.12404 16.9381C9.33652 17.2661 10.6138 17.2706 11.8286 16.9513C13.0433 16.632 14.1533 16 15.0477 15.1182C15.9422 14.2364 16.5901 13.1356 16.9267 11.9255L16.9267 11.9257Z" stroke="#989EB0" stroke-width="2" stroke-linecap="round" stroke-linejoin="round"/>
</svg>
