<svg width="20" height="20" viewBox="0 0 20 20" fill="none" xmlns="http://www.w3.org/2000/svg">
<path d="M8.33325 1.66666H11.3715C10.7777 2.3301 10.4166 3.20621 10.4166 4.16666C10.4166 6.23772 12.0955 7.91666 14.1666 7.91666C14.4376 7.91666 14.7018 7.88791 14.9565 7.83331C14.9857 8.13125 14.9999 8.43751 14.9999 8.74999V13.3333L16.6666 14.1667V15.8333H3.33325V14.1667L4.99992 13.3333V8.74999C4.99992 6.18332 5.94159 4.04999 8.33325 3.48332V1.66666Z" fill="#F59714"/>
<path d="M11.6666 4.16666C11.6666 3.93769 11.6974 3.71591 11.755 3.50524C12.045 2.4455 13.0148 1.66666 14.1666 1.66666C15.5473 1.66666 16.6666 2.78594 16.6666 4.16666C16.6666 5.35242 15.8411 6.34537 14.7334 6.60213C14.5513 6.64434 14.3615 6.66666 14.1666 6.66666C12.7859 6.66666 11.6666 5.54737 11.6666 4.16666Z" fill="#F59714"/>
<path d="M11.6666 16.6667C11.6666 17.5833 10.9166 18.3333 9.99992 18.3333C9.07492 18.3333 8.33325 17.5833 8.33325 16.6667H11.6666Z" fill="#F59714"/>
</svg>
